#N canvas 598 128 395 369 10;
#X declare -path CG-Pd-Library-Local/sequencer;
#X declare -path CG-Pd-Library-Local/externals;
#X declare -path CG-Pd-Library-Local/metronome;
#X obj 25 186 inlet~ inL-\$1;
#X obj 135 186 inlet~ inR-\$1;
#X obj 25 308 outlet~ outL-\$1;
#X obj 135 308 outlet~ outR-\$1;
#X obj 25 22 r expIn-\$1;
#X obj 25 47 r fsIn-\$1;
#X obj 26 78 r ctrlIn-\$1;
#X obj 26 104 s ctrlOut-\$1;
#N canvas 13 50 450 300 CG-PdLibrary-Local 0;
#X obj 502 35 r cgSc-1-slots;
#X obj 60 98 declare -path CG-Pd-Library-Local/sequencer;
#X obj 58 130 declare -path CG-Pd-Library-Local/externals;
#X obj 59 165 declare -path CG-Pd-Library-Local/metronome;
#X restore 27 135 pd CG-PdLibrary-Local;
#N canvas 4 50 1718 953 memory-5 1;
#X obj 140 349 *~ 1;
#X obj 139 385 e_phaser ph0;
#X obj 87 178 route 1 2 3 4 5;
#X obj 87 123 poly 5 1, f 9;
#X text 750 29 == == == == knob assignments == == == ==;
#X text 1377 167 this simplifies the knob down to 0-1;
#X text 1008 75 -- filter --;
#X text 160 123 <-- 5 voice poly distributor;
#X text 213 14 --- 5-voice polysynth with filter \, phaser \, & env
presets ---, f 62;
#X text 741 379 == aux env switcher ==;
#X obj 1331 196 sig~;
#X obj 1331 224 lop~ 5;
#X text 1239 74 -- resonance --;
#X text 61 67 == synth logic ==;
#X text 95 471 == main audio output ==;
#X text 222 386 <-- phaser module;
#X text 334 256 synth voices!;
#X obj 1069 207 + 500;
#X obj 1331 173 * 3.2;
#X obj 1047 139 pow 0.8;
#X obj 1357 133 pow 1.2;
#X text 877 763 pluck;
#X text 1109 760 voice;
#X msg 1037 742 70;
#X msg 870 742 10;
#X msg 938 741 0;
#X msg 1139 742 200;
#X obj 1069 232 sig~;
#X obj 1069 255 lop~ 5;
#X msg 904 742 270;
#X obj 87 153 pack 0 0 0;
#X msg 1105 741 30;
#X msg 1210 743 300;
#X msg 1244 743 1000;
#X msg 1286 743 50;
#X msg 1320 744 1200;
#X text 1325 764 pad;
#X text 1363 745 <--- env selector ADSR preset info;
#X msg 972 742 30;
#X msg 1071 742 350;
#N canvas 435 253 1148 709 FX_module 0;
#X obj 107 265 + 0.3;
#X obj 111 108 * 0.87;
#X text 37 216 -- fx rate --;
#X text 46 82 -- fx depth --;
#X obj 111 131 sig~;
#X obj 111 154 lop~ 5;
#X obj 103 487 +~ 1;
#X obj 125 379 osc~ 0.5;
#X text 29 488 1 +/- 0.00x;
#X text 65 348 == internal LFO modulation ==;
#X obj 193 606 +~ 1;
#X text 68 379 LFO rate;
#X text 6 463 vibrato depth;
#X text 66 620 cutoff LFO depth;
#X text 455 24 FX NONE;
#X msg 406 70 0;
#X msg 443 70 0;
#X msg 478 71 0.005;
#X text 406 40 depth/rate/pitch/cutoff lfo;
#X msg 524 71 0.03;
#X obj 94 462 *~;
#X obj 194 581 *~;
#X text 408 146 depth/rate/pitch/cutoff lfo;
#X text 403 248 depth/rate/pitch/cutoff lfo;
#X text 404 352 depth/rate/pitch/cutoff lfo;
#X text 408 456 depth/rate/pitch/cutoff lfo;
#X text 406 558 depth/rate/pitch/cutoff lfo;
#X text 457 130 FX Leslie;
#X text 452 232 FX Univibe;
#X text 454 336 FX Phaser1;
#X text 457 440 FX Phaser2;
#X obj 867 124 inlet;
#X obj 867 155 i;
#X floatatom 867 176 5 0 0 0 - - -;
#X obj 846 205 sel 0 1 2 3 4 5;
#X obj 595 37 bang;
#X msg 479 180 0.005;
#X obj 596 146 bang;
#X msg 486 285 0.005;
#X obj 603 251 bang;
#X msg 480 385 0.005;
#X msg 526 385 0.03;
#X obj 597 351 bang;
#X msg 479 499 0.005;
#X msg 525 499 0.03;
#X obj 596 465 bang;
#X msg 447 597 0;
#X obj 599 564 bang;
#X text 455 542 FX VeryOld;
#X msg 444 179 0.98;
#X obj 109 240 * 5;
#X msg 414 284 0.98;
#X msg 451 284 0;
#X msg 408 384 0.5;
#X msg 445 384 0.5;
#X msg 444 498 0.3;
#X msg 407 498 0.98;
#X msg 528 598 0.05;
#X msg 482 598 0.015;
#X msg 410 597 0.15;
#X msg 525 180 0.2;
#X msg 407 179 0.4;
#X msg 532 285 0.08;
#X obj 70 177 s~ phaserDepth-\$1;
#X obj 86 291 s phaserRate-\$1;
#X obj 82 521 s~ pitchLFO-\$1;
#X obj 172 640 s~ cutoffLFO-\$1;
#X msg 872 381 symbol None;
#X msg 892 401 symbol Leslie;
#X msg 912 421 symbol Univibe;
#X msg 932 441 symbol Phaser1;
#X msg 952 461 symbol Phaser2;
#X msg 972 481 symbol VeryOld;
#X obj 890 581 s fx-display-\$1;
#X connect 0 0 64 0;
#X connect 1 0 4 0;
#X connect 4 0 5 0;
#X connect 5 0 63 0;
#X connect 6 0 65 0;
#X connect 7 0 20 0;
#X connect 7 0 21 0;
#X connect 10 0 66 0;
#X connect 15 0 1 0;
#X connect 16 0 50 0;
#X connect 17 0 20 1;
#X connect 19 0 21 1;
#X connect 20 0 6 0;
#X connect 21 0 10 0;
#X connect 31 0 32 0;
#X connect 32 0 33 0;
#X connect 33 0 34 0;
#X connect 34 0 35 0;
#X connect 34 1 37 0;
#X connect 34 2 39 0;
#X connect 34 3 42 0;
#X connect 34 4 45 0;
#X connect 34 5 47 0;
#X connect 35 0 15 0;
#X connect 35 0 16 0;
#X connect 35 0 17 0;
#X connect 35 0 19 0;
#X connect 35 0 67 0;
#X connect 36 0 20 1;
#X connect 37 0 61 0;
#X connect 37 0 49 0;
#X connect 37 0 36 0;
#X connect 37 0 60 0;
#X connect 37 0 68 0;
#X connect 38 0 20 1;
#X connect 39 0 51 0;
#X connect 39 0 52 0;
#X connect 39 0 38 0;
#X connect 39 0 62 0;
#X connect 39 0 69 0;
#X connect 40 0 20 1;
#X connect 41 0 21 1;
#X connect 42 0 53 0;
#X connect 42 0 54 0;
#X connect 42 0 40 0;
#X connect 42 0 41 0;
#X connect 42 0 70 0;
#X connect 43 0 20 1;
#X connect 44 0 21 1;
#X connect 45 0 56 0;
#X connect 45 0 55 0;
#X connect 45 0 43 0;
#X connect 45 0 44 0;
#X connect 45 0 71 0;
#X connect 46 0 50 0;
#X connect 47 0 59 0;
#X connect 47 0 46 0;
#X connect 47 0 58 0;
#X connect 47 0 57 0;
#X connect 47 0 72 0;
#X connect 49 0 50 0;
#X connect 50 0 0 0;
#X connect 51 0 1 0;
#X connect 52 0 50 0;
#X connect 53 0 1 0;
#X connect 54 0 50 0;
#X connect 55 0 50 0;
#X connect 56 0 1 0;
#X connect 57 0 21 1;
#X connect 58 0 20 1;
#X connect 59 0 1 0;
#X connect 60 0 21 1;
#X connect 61 0 1 0;
#X connect 62 0 21 1;
#X connect 67 0 73 0;
#X connect 68 0 73 0;
#X connect 69 0 73 0;
#X connect 70 0 73 0;
#X connect 71 0 73 0;
#X connect 72 0 73 0;
#X restore 680 153 pd FX_module;
#X text 705 199 -- outputs display string;
#X text 707 182 -- accepts knob input;
#X msg 601 276 0.5;
#X msg 612 299 1;
#X msg 595 255 0.25;
#X msg 620 319 2;
#X msg 629 342 4;
#X obj 612 409 lop~ 5;
#X obj 614 387 sig~;
#X text 533 74 -- octave --;
#X text 709 217 -- hardcoded for knob2;
#X obj 1069 182 * 2300;
#X text 211 670 Memory-5 by JACK PRIME;
#X text 208 691 using components from...;
#X text 223 737 [[ ANALOG STYLE ]];
#X text 250 759 << FX-13 >>;
#X text 176 784 & ....... || CZZ-Multi ||;
#X text 254 808 by C & G;
#X obj 547 95 r mf_octave-\$1;
#X obj 780 92 r mf_fx-\$1;
#X obj 1023 98 r mf_cutoff-\$1;
#X obj 1292 95 r mf_emphasis-\$1;
#X obj 94 449 outlet~ left;
#X obj 170 449 outlet~ right;
#X obj 87 94 inlet notes;
#X obj 1091 299 s~ cutoff-\$1;
#X obj 590 461 s~ whichOctave-\$1;
#X obj 1331 297 send~ resonance-\$1;
#X obj 875 835 send env_attack-\$1;
#X obj 994 835 send env_decay-\$1;
#X obj 1106 835 send env_sustain-\$1;
#X obj 1228 835 send env_release-\$1;
#X obj 249 308 r~ phaserDepth-\$1;
#X obj 274 331 r phaserRate-\$1;
#X obj 9 256 simple \$1;
#X obj 76 256 simple \$1;
#X obj 141 256 simple \$1;
#X obj 207 256 simple \$1;
#X obj 274 256 simple \$1;
#X obj 525 215 sel -2 -1 0 1 2;
#X obj 688 862 s aux-label-\$1;
#X obj 773 403 r mf_type-\$1;
#X obj 750 648 sel 1 2 3;
#X obj 773 464 f;
#X obj 773 506 == 0;
#X obj 773 527 sel 0 1, f 9;
#X msg 796 548 1;
#X obj 773 603 f;
#X obj 773 569 f, f 13;
#X obj 773 549 bng 15 250 50 0 empty empty empty 17 7 0 10 -262144
-1 -1;
#X obj 852 445 bng 15 250 50 0 empty empty empty 17 7 0 10 -262144
-1 -1;
#X obj 852 403 r loadbang-\$1;
#X obj 773 485 t f f, f 13;
#X floatatom 869 623 5 0 0 0 - - -;
#X floatatom 773 424 5 0 0 0 - - -;
#X obj 852 424 del 50;
#X msg 613 682 symbol Pluck;
#X msg 613 709 symbol Voice;
#X msg 614 735 symbol Pad;
#X obj 670 792 symbol;
#X obj 670 813 pack s s;
#X obj 715 731 r fx-display-\$1;
#X obj 715 752 t b s;
#X msg 670 834 \$1 | \$2;
#X text 867 507 if never set \, default to pluck;
#X connect 0 0 1 0;
#X connect 1 0 63 0;
#X connect 1 0 64 0;
#X connect 2 0 75 0;
#X connect 2 1 76 0;
#X connect 2 2 77 0;
#X connect 2 3 78 0;
#X connect 2 4 79 0;
#X connect 3 0 30 0;
#X connect 3 1 30 1;
#X connect 3 2 30 2;
#X connect 10 0 11 0;
#X connect 11 0 68 0;
#X connect 17 0 27 0;
#X connect 18 0 10 0;
#X connect 19 0 52 0;
#X connect 20 0 18 0;
#X connect 23 0 69 0;
#X connect 24 0 69 0;
#X connect 25 0 71 0;
#X connect 26 0 72 0;
#X connect 27 0 28 0;
#X connect 28 0 66 0;
#X connect 29 0 70 0;
#X connect 30 0 2 0;
#X connect 31 0 71 0;
#X connect 32 0 69 0;
#X connect 33 0 70 0;
#X connect 34 0 71 0;
#X connect 35 0 72 0;
#X connect 38 0 72 0;
#X connect 39 0 70 0;
#X connect 43 0 49 0;
#X connect 44 0 49 0;
#X connect 45 0 49 0;
#X connect 46 0 49 0;
#X connect 47 0 49 0;
#X connect 48 0 67 0;
#X connect 49 0 48 0;
#X connect 52 0 17 0;
#X connect 59 0 80 0;
#X connect 60 0 40 0;
#X connect 61 0 19 0;
#X connect 62 0 20 0;
#X connect 65 0 3 0;
#X connect 73 0 1 1;
#X connect 74 0 1 2;
#X connect 75 0 0 0;
#X connect 76 0 0 0;
#X connect 77 0 0 0;
#X connect 78 0 0 0;
#X connect 79 0 0 0;
#X connect 80 0 45 0;
#X connect 80 1 43 0;
#X connect 80 2 44 0;
#X connect 80 3 46 0;
#X connect 80 4 47 0;
#X connect 82 0 84 0;
#X connect 82 0 95 0;
#X connect 83 0 24 0;
#X connect 83 0 25 0;
#X connect 83 0 38 0;
#X connect 83 0 29 0;
#X connect 83 0 97 0;
#X connect 83 1 23 0;
#X connect 83 1 39 0;
#X connect 83 1 31 0;
#X connect 83 1 26 0;
#X connect 83 1 98 0;
#X connect 83 2 32 0;
#X connect 83 2 33 0;
#X connect 83 2 34 0;
#X connect 83 2 35 0;
#X connect 83 2 99 0;
#X connect 84 0 93 0;
#X connect 85 0 86 0;
#X connect 86 0 90 0;
#X connect 86 1 87 0;
#X connect 87 0 88 0;
#X connect 88 0 83 0;
#X connect 88 0 94 0;
#X connect 89 0 88 0;
#X connect 90 0 89 0;
#X connect 91 0 84 0;
#X connect 92 0 96 0;
#X connect 93 0 85 0;
#X connect 93 1 89 1;
#X connect 96 0 91 0;
#X connect 97 0 100 0;
#X connect 98 0 100 0;
#X connect 99 0 100 0;
#X connect 100 0 101 0;
#X connect 101 0 104 0;
#X connect 102 0 103 0;
#X connect 103 0 100 0;
#X connect 103 1 101 1;
#X connect 104 0 81 0;
#X restore 258 257 pd memory-5;
#X obj 25 287 +~;
#X obj 135 287 +~;
#X obj 258 236 r notesIn-\$1;
#X connect 0 0 10 0;
#X connect 1 0 11 0;
#X connect 9 0 10 1;
#X connect 9 1 11 1;
#X connect 10 0 2 0;
#X connect 11 0 3 0;
#X connect 12 0 9 0;
