#N canvas 419 126 1093 796 10;
#X obj 300 45 inlet;
#X obj 300 80 unpack f f;
#X obj 299 106 mtof;
#X obj 535 616 outlet~;
#X obj 300 139 sig~;
#X obj 358 496 moog~;
#X msg 276 465 reset;
#X obj 536 593 *~ 0.75;
#X text 314 63 <-- midi note --> velocity;
#X text 577 275 values = mSec;
#X text 580 253 A__D___S%_R;
#X obj 522 232 c_adsr 1 30 200 0 150;
#X text 204 377 osc;
#X text 591 67 == envelope generator ==;
#X obj 394 353 *~;
#X obj 532 568 *~;
#X text 418 352 filter EG;
#X text 564 567 <--- amp EG is applied post-filter. VERY IMPORTANT!
;
#X obj 234 344 *~;
#X obj 318 184 *~ 0.5;
#X obj 353 299 *~;
#X obj 247 264 *~;
#X text 241 185 default oct;
#X text 88 132 oct sel;
#X obj 449 442 r~ resonance-\$1;
#X obj 92 281 r~ pitchLFO-\$1;
#X obj 80 151 r~ whichOctave-\$1;
#X obj 572 103 r env_attack-\$1;
#X obj 597 126 r env_decay-\$1;
#X obj 620 147 r env_sustain-\$1;
#X obj 646 175 r env_release-\$1;
#X obj 399 243 r~ cutoffLFO-\$1;
#X obj 318 255 r~ cutoff-\$1;
#X obj 233 378 blsaw \$1;
#X connect 0 0 1 0;
#X connect 1 0 2 0;
#X connect 1 1 11 0;
#X connect 2 0 4 0;
#X connect 4 0 19 0;
#X connect 5 0 15 0;
#X connect 6 0 5 0;
#X connect 7 0 3 0;
#X connect 11 0 15 1;
#X connect 11 0 14 1;
#X connect 14 0 5 1;
#X connect 15 0 7 0;
#X connect 18 0 33 0;
#X connect 19 0 21 0;
#X connect 20 0 14 0;
#X connect 21 0 18 0;
#X connect 24 0 5 2;
#X connect 25 0 18 1;
#X connect 26 0 21 1;
#X connect 27 0 11 2;
#X connect 28 0 11 3;
#X connect 29 0 11 4;
#X connect 30 0 11 5;
#X connect 31 0 20 1;
#X connect 32 0 20 0;
#X connect 33 0 5 0;
